HIERARCHY
ROOT Hips
{
   OFFSET 0.00000 0.00000 0.00000
   CHANNELS 6 Xposition Yposition Zposition Zrotation Xrotation Yrotation
   JOINT RightUpLeg
   {
      OFFSET -8.945800 -8.667070 0.101652
      CHANNELS 3 Zrotation Xrotation Yrotation
      JOINT RightLeg
      {
         OFFSET 0.000000 -44.422697 1.372700
         CHANNELS 3 Zrotation Xrotation Yrotation
         JOINT RightFoot
         {
            OFFSET 0.253549 -42.092399 -1.460590
            CHANNELS 3 Zrotation Xrotation Yrotation
            JOINT RightToes
            {
               OFFSET 0.040000 -4.415090 8.499099
               CHANNELS 3 Zrotation Xrotation Yrotation
               End Site
               {
                  OFFSET -0.080000 -0.137448 9.779790
               }
            }
         }
      }
   }
   JOINT Spine
   {
      OFFSET 0.000000 11.890501 0.000000
      CHANNELS 3 Zrotation Xrotation Yrotation
      JOINT Spine1
      {
         OFFSET 0.000000 25.657401 0.127663
         CHANNELS 3 Zrotation Xrotation Yrotation
         JOINT HEad
         {
            OFFSET 0.000000 8.734161 0.011341
            CHANNELS 3 Zrotation Xrotation Yrotation
            End Site
            {
               OFFSET -0.290000 12.774200 2.513950
            }
         }
         JOINT LeftShoulder1
         {
            OFFSET 8.990000 -0.362252 -0.220000
            CHANNELS 3 Zrotation Xrotation Yrotation
            JOINT LeftArm
            {
               OFFSET 10.282700 -0.003380 0.322123
               CHANNELS 3 Zrotation Xrotation Yrotation
               JOINT LeftForeArm
               {
                  OFFSET 32.766900 0.099144 -1.424340
                  CHANNELS 3 Zrotation Xrotation Yrotation
                  JOINT LeftHand
                  {
                     OFFSET 27.564301 0.085362 1.022160
                     CHANNELS 3 Zrotation Xrotation Yrotation
                     End Site
                     {
                        OFFSET 16.744301 -0.600000 1.502910
                     }
                  }
               }
            }
         }
         JOINT RightShoulder
         {
            OFFSET -8.990000 -0.362252 -0.220000
            CHANNELS 3 Zrotation Xrotation Yrotation
            JOINT RightArm
            {
               OFFSET -10.282700 -0.003380 0.322123
               CHANNELS 3 Zrotation Xrotation Yrotation
               JOINT RightForeArm
               {
                  OFFSET -32.897098 0.099144 -1.424340
                  CHANNELS 3 Zrotation Xrotation Yrotation
                  JOINT RightHand
                  {
                     OFFSET -27.492101 0.085362 1.022160
                     CHANNELS 3 Zrotation Xrotation Yrotation
                     End Site
                     {
                        OFFSET -16.631201 -0.600000 1.502910
                     }
                  }
               }
            }
         }
      }
   }
   JOINT LeftUpLeg
   {
      OFFSET 8.945800 -8.667070 0.101652
      CHANNELS 3 Zrotation Xrotation Yrotation
      JOINT LeftLeg
      {
         OFFSET 0.000000 -44.422697 1.372700
         CHANNELS 3 Zrotation Xrotation Yrotation
         JOINT LeftFoot
         {
            OFFSET -0.253549 -42.092399 -1.460590
            CHANNELS 3 Zrotation Xrotation Yrotation
            JOINT LeftToes
            {
               OFFSET -0.040000 -4.415090 8.499099
               CHANNELS 3 Zrotation Xrotation Yrotation
               End Site
               {
                  OFFSET 0.080000 -0.047448 9.779790
               }
            }
         }
      }
   }
}
MOTION
Frames: 16
Frame Time: 0.016667
-222.278573 97.842740 395.352968 31.355185 30.195594 85.808507 -25.473252 13.717738 -0.313425 13.895677 13.604474 10.399267 -51.528026 16.392765 27.191039 4.132324 4.844371 -50.681284 -39.072644 35.726937 19.879170 -2.450767 9.752439 -12.780888 -29.657443 4.817881 -3.099109 0.564109 -56.186219 16.486651 -98.072350 -35.741106 -81.239547 -12.764822 76.112876 -28.876288 12.174483 -26.332138 -19.125774 46.676867 66.674039 -20.516471 137.349121 254.510361 269.859108 -18.738964 337.394980 40.448756 -2.142772 -27.026106 42.823558 6.618200 -0.649150 -62.814422 -38.821702 -14.332563 148.431540 -24.687963 9.718087 32.223350 16.446826 -16.364399 -46.493193
-220.448643 96.866473 395.519632 35.399443 32.288261 83.609903 -28.273491 15.016321 4.718441 14.268838 17.672501 5.363570 -51.945477 12.957596 26.661041 3.796643 3.970371 -51.209244 -41.179706 34.560918 24.082672 -1.894493 10.430962 -13.932019 -30.670691 7.029391 -4.653137 0.690609 -55.331250 15.506763 -82.825483 -35.506708 -67.233165 -3.157383 68.441214 -33.556180 10.549308 -31.994519 -39.292487 48.977408 69.388964 -24.619410 137.601059 254.323569 270.270258 -17.640039 338.186571 41.036080 -7.954245 -25.057734 40.235036 3.866728 0.844751 -51.761786 -38.376770 -4.895837 136.096328 -34.872306 11.014562 33.011155 16.812154 -15.303336 -46.192791
-218.566968 96.060999 395.424112 40.709659 33.182961 80.517528 -30.623720 18.101101 11.433180 14.635091 21.514341 -0.046681 -52.449006 9.662296 26.372527 3.296364 2.618210 -51.888886 -42.214404 33.905237 28.502060 -1.494077 10.378879 -15.137928 -31.992995 9.195630 -5.570911 0.851540 -55.945400 14.627564 -64.917383 -32.927615 -53.509795 3.205982 58.299428 -37.973249 6.372323 -30.758271 -21.417330 51.128132 71.968044 -28.607677 139.385296 253.431355 272.086842 -17.262647 337.974781 41.574863 -2.279517 -18.812047 36.328847 3.828763 2.754955 -37.973769 -36.133675 6.270338 120.210428 -48.557331 11.966159 34.591551 17.859539 -12.786743 -44.892641
-216.845166 95.753954 395.048937 45.144094 32.140346 78.429628 -30.202034 20.885677 17.715055 15.948324 24.407775 -5.866717 -52.163691 7.752603 25.575647 3.620210 1.850997 -53.543069 -43.854872 34.118861 34.373774 -2.222898 9.974889 -14.307605 -34.818426 9.645021 -5.068337 2.619183 -54.281402 11.738868 -48.278311 -25.502717 -40.111532 5.116689 48.166258 -38.497415 0.302596 -35.496008 -45.875222 48.743283 74.085341 -32.633431 138.346274 251.357354 272.504440 -16.594433 339.473925 37.567656 -3.421541 -15.530621 29.914955 7.164332 1.678495 -21.564094 -31.154262 13.560403 100.232917 -37.766899 14.538196 34.851686 19.357909 -9.591810 -43.110361
-215.229184 95.585412 394.631075 48.673916 31.344349 76.026426 -30.624270 23.131544 23.111542 17.271545 26.583863 -11.621111 -49.869848 5.377761 24.679546 3.666300 0.444293 -55.442005 -42.563294 36.413706 35.765316 -2.300902 7.623601 -15.074496 -36.468726 8.126052 -3.890032 1.484885 -52.372583 9.051741 -37.622680 -17.196586 -25.303161 6.362209 34.965156 -33.529808 -1.338812 -31.797010 -23.825261 48.431806 76.643697 -34.623790 138.556234 250.394544 272.904580 -15.269800 338.968737 38.356768 0.422926 -12.271195 29.726281 9.732184 0.662178 -7.546227 -22.435594 18.325246 79.820009 -37.415209 14.136129 34.886274 21.281399 -5.644183 -40.959907
-213.464562 95.286444 394.165148 51.646076 31.902103 73.312204 -32.342025 24.593168 28.300547 18.317978 28.411186 -16.490739 -47.788177 2.709482 24.289461 3.330819 -1.421074 -57.003543 -36.767038 39.172228 33.266409 -4.450047 6.451477 -17.803822 -39.330866 5.631140 -1.768388 -1.401588 -52.463369 6.729744 -30.853918 -10.566902 -12.392281 5.702462 22.881996 -32.852462 -6.361899 -35.968090 -41.799013 48.540556 79.920569 -35.967025 141.102733 248.506543 274.214746 -15.221741 338.689984 47.283436 -0.371595 -11.973953 37.984731 12.731945 -0.227726 2.958147 -13.706520 16.392005 63.678728 -36.881792 18.818296 35.907196 24.050652 -0.358115 -38.919770
-211.338669 94.785918 393.293146 52.705247 31.899463 71.796961 -33.569844 25.732036 33.651386 17.779380 28.045068 -20.507976 -47.618382 0.371294 24.958594 2.878657 -3.137705 -57.655765 -32.809893 41.817140 31.838575 -5.566581 3.957580 -18.213244 -41.045670 2.115768 -0.611884 -4.097796 -53.142864 5.303738 -28.907700 -6.264636 -3.127932 5.346960 15.525162 -33.418032 -6.898810 -31.398274 -28.995833 55.060474 78.510128 -35.921802 142.213595 238.535641 275.320937 -17.095837 337.171578 48.487223 -0.258566 -11.281487 39.581537 19.390489 -2.467317 9.830962 -8.157188 11.509990 52.358560 -33.847286 27.735523 37.343578 26.924433 4.966775 -37.560009
-208.610341 94.087227 392.022890 57.381218 31.805954 68.896432 -37.925062 29.618610 37.574920 18.417754 28.884720 -22.996678 -47.368161 -2.587120 24.677733 2.319456 -5.229225 -58.973144 -30.378694 44.250091 28.668066 -5.475879 2.073152 -17.994849 -43.392233 0.655966 0.548041 -5.246260 -54.987650 3.582154 -27.980225 -5.016967 4.174291 5.475811 11.844739 -32.938413 2.806090 -29.061307 -49.910436 62.452934 80.233173 -35.321138 138.418182 233.503868 272.351416 -18.342849 336.734555 49.260656 -15.879189 -11.512142 53.228371 24.629537 -0.250349 14.916138 -4.632743 4.449823 44.148939 -34.536343 35.089772 36.515301 28.291340 7.556689 -37.811589
-205.327374 93.100012 390.506624 66.270238 31.415800 65.677562 -47.368793 37.593218 40.262951 19.677963 28.891956 -23.405860 -47.249305 -4.759747 24.955723 1.728462 -7.170600 -59.885179 -23.108384 42.999265 23.524987 -5.529183 2.662113 -17.854430 -46.783791 1.367776 1.729331 -5.038241 -57.059325 3.180784 -25.111213 -8.811588 11.747813 5.716937 11.700790 -33.783396 -12.378609 -23.345880 -33.783960 61.767539 87.389853 -34.494388 136.341682 238.934169 268.834989 -16.500487 336.731003 52.194014 -5.216816 -15.850859 38.238455 28.347295 4.144699 21.827183 -0.684217 -1.025490 41.820627 -35.454631 35.504064 36.591219 26.626866 4.511920 -35.714444
-201.959473 92.028063 388.670992 71.498878 31.076285 63.754577 -55.860166 42.003184 44.104984 19.743746 29.963487 -21.207312 -47.048573 -7.258007 25.471633 1.192238 -8.840310 -60.212386 -14.080087 42.842597 15.735605 -5.139433 4.238697 -18.847427 -48.681494 3.296922 2.438535 -2.988144 -60.461675 4.367000 -20.505640 -16.660915 19.407638 5.296789 15.869960 -33.969748 -10.989823 -26.427586 -40.006686 58.221912 93.356883 -33.824384 134.933092 243.220195 265.151632 -15.488948 338.239902 53.333010 -8.625072 -19.117764 43.958455 28.980486 4.508187 25.788812 4.134136 -6.597659 38.960048 -40.073352 35.477826 34.350340 25.493502 2.022887 -35.868496
-198.668324 90.596560 386.917833 74.989794 29.982871 63.398519 -62.989104 45.210641 48.137770 20.814418 31.760260 -18.601115 -46.348465 -9.798066 26.382121 0.927608 -9.993363 -60.435167 -6.834893 42.749334 8.680168 -4.825360 5.451547 -19.340381 -47.734614 4.916500 2.237076 -1.545581 -64.601357 6.428066 -15.369884 -22.837263 26.369310 5.071325 18.835510 -32.029571 -20.598204 -24.619159 -29.173401 54.330842 98.640028 -33.899100 134.104030 246.302823 262.517774 -15.843582 340.659318 54.505671 -4.048016 -22.235443 38.440387 30.403720 4.961367 27.513443 4.529427 -12.356803 35.572834 -39.078149 37.343226 32.895420 24.749102 -0.060717 -35.865142
-195.530621 88.815697 385.115770 76.029984 30.858187 62.646311 -69.092097 45.609268 51.344933 21.328055 32.477164 -16.695779 -45.450264 -12.220342 26.568548 0.785759 -10.962565 -61.063066 0.863938 40.231566 2.329319 -4.877989 8.014122 -19.859190 -46.174408 7.270814 2.039473 -0.588337 -66.854438 9.086162 -13.109079 -24.540687 32.759267 2.199098 24.557069 -32.531761 -21.310872 -25.213582 -35.512254 50.870023 102.907175 -33.582117 134.063868 249.720158 259.747477 -15.750679 343.226787 54.706967 -6.690655 -23.282914 42.252097 31.155163 4.170463 25.942481 2.950426 -14.032915 34.125360 -43.071743 35.193844 28.476326 23.464625 -3.465737 -37.939764
-192.445485 87.080964 383.661837 79.030889 30.555606 59.139213 -75.711008 44.702922 55.098979 20.702872 34.721953 -15.155739 -44.708871 -13.879075 26.784758 0.750243 -11.625341 -61.450092 5.225870 38.175645 0.639367 -3.742520 8.265115 -16.615668 -41.931737 9.709549 1.400139 -2.324378 -69.353461 11.707643 -11.872029 -24.323533 35.494185 -2.043652 29.192529 -29.715913 -29.072574 -24.106791 -31.437418 47.455331 107.462638 -34.837834 133.610344 251.596138 258.508098 -15.584475 346.521561 49.562308 -3.830941 -23.394784 37.312623 38.730393 1.594669 19.648989 -5.886221 -1.305746 35.508644 -33.557143 32.135333 22.189727 23.180535 -4.762105 -38.367382
-193.269879 87.750519 383.930277 81.149819 27.104072 56.641584 -75.955740 44.454163 55.365534 18.464713 35.155182 -12.181649 -46.766514 -11.020682 27.091006 1.088480 -11.273106 -60.546410 6.326471 39.204589 -0.182209 -4.764407 8.724103 -15.225916 -37.560505 11.358669 0.382539 -1.196465 -72.323125 15.847492 -6.992589 -24.059143 35.689627 -4.575613 31.220064 -27.257282 -28.872695 -25.380223 -35.543177 44.335492 108.576867 -37.205898 140.260598 251.659959 262.584054 -15.321492 346.038393 49.157759 -5.047106 -22.149790 37.291081 44.858804 2.432621 10.404444 -9.064344 6.931170 46.106806 -35.042945 33.747309 20.554956 23.917835 -4.532190 -39.093687
-194.335801 88.797558 384.182467 80.403354 25.877749 55.437172 -73.526385 42.966193 53.889564 17.568652 35.374489 -10.061848 -48.614056 -8.467490 27.110021 1.517180 -10.693967 -59.393467 3.847793 39.049134 0.653607 -7.085209 9.024343 -14.072335 -32.672616 12.026800 -1.164131 0.453540 -76.527502 20.271120 -1.666580 -24.724796 33.559755 -7.376875 31.131121 -26.033705 -43.922361 -33.726870 -18.913484 41.702338 109.338939 -39.663568 147.848542 250.893721 267.666726 -14.918598 345.673907 49.335966 -4.276296 -18.404568 37.892773 44.406017 1.057320 0.188784 -9.566159 12.716081 59.272272 -29.956178 35.853483 18.824013 23.992404 -6.283853 -42.497177
-195.471761 90.090006 384.216761 78.267616 23.285548 55.397117 -69.587559 41.774028 50.247793 16.112917 35.096951 -7.290541 -48.265330 -5.494510 28.032951 1.763950 -10.062735 -57.684486 -0.614746 39.126879 1.551922 -6.449614 8.004371 -11.632539 -28.650123 12.788106 -2.911781 1.467011 -80.773182 24.531502 0.269167 -24.695374 29.975221 -9.278856 31.914172 -23.268940 -32.144089 -31.905798 -33.858009 41.957623 110.179434 -42.440384 154.757374 250.801049 271.675801 -14.276887 346.928121 48.369969 -5.123840 -14.897076 39.265033 45.298262 0.090149 -6.274439 -14.026775 19.654957 77.131018 -23.443315 42.937520 20.064888 24.855110 -6.914635 -46.110078
